<svg width="289" height="53" viewBox="0 0 289 53" fill="none" xmlns="http://www.w3.org/2000/svg">
<path d="M17.488 40L11.104 27.808H11.056V40H0.4V6.016H16.24C18.992 6.016 21.344 6.512 23.296 7.504C25.248 8.464 26.704 9.792 27.664 11.488C28.656 13.152 29.152 15.04 29.152 17.152C29.152 19.424 28.512 21.44 27.232 23.2C25.984 24.96 24.176 26.224 21.808 26.992L29.2 40H17.488ZM11.056 20.704H15.28C16.304 20.704 17.072 20.48 17.584 20.032C18.096 19.552 18.352 18.816 18.352 17.824C18.352 16.928 18.08 16.224 17.536 15.712C17.024 15.2 16.272 14.944 15.28 14.944H11.056V20.704ZM58.7643 26.224C58.7643 26.96 58.7163 27.664 58.6203 28.336H41.4843C41.6443 30.672 42.6203 31.84 44.4123 31.84C45.5643 31.84 46.3963 31.312 46.9083 30.256H58.1883C57.8043 32.176 56.9883 33.904 55.7403 35.44C54.5243 36.944 52.9723 38.144 51.0843 39.04C49.2283 39.904 47.1803 40.336 44.9403 40.336C42.2523 40.336 39.8523 39.776 37.7403 38.656C35.6603 37.536 34.0283 35.936 32.8443 33.856C31.6923 31.744 31.1163 29.28 31.1163 26.464C31.1163 23.648 31.6923 21.2 32.8443 19.12C34.0283 17.008 35.6603 15.392 37.7403 14.272C39.8523 13.152 42.2523 12.592 44.9403 12.592C47.6283 12.592 50.0123 13.152 52.0923 14.272C54.2043 15.36 55.8363 16.928 56.9883 18.976C58.1723 21.024 58.7643 23.44 58.7643 26.224ZM47.9643 23.68C47.9643 22.784 47.6763 22.112 47.1003 21.664C46.5243 21.184 45.8043 20.944 44.9403 20.944C43.0523 20.944 41.9483 21.856 41.6283 23.68H47.9643ZM74.1824 40.336C71.6224 40.336 69.3504 39.92 67.3664 39.088C65.4144 38.256 63.8624 37.104 62.7104 35.632C61.5584 34.16 60.9024 32.496 60.7424 30.64H70.9664C71.0944 31.44 71.4304 32.032 71.9744 32.416C72.5504 32.8 73.2704 32.992 74.1344 32.992C74.6784 32.992 75.1104 32.88 75.4304 32.656C75.7504 32.4 75.9104 32.096 75.9104 31.744C75.9104 31.136 75.5744 30.704 74.9024 30.448C74.2304 30.192 73.0944 29.904 71.4944 29.584C69.5424 29.2 67.9264 28.784 66.6464 28.336C65.3984 27.888 64.2944 27.12 63.3344 26.032C62.4064 24.944 61.9424 23.44 61.9424 21.52C61.9424 19.856 62.3744 18.352 63.2384 17.008C64.1344 15.632 65.4464 14.56 67.1744 13.792C68.9024 12.992 70.9984 12.592 73.4624 12.592C77.1104 12.592 79.9584 13.488 82.0064 15.28C84.0864 17.072 85.3344 19.408 85.7504 22.288H76.2944C76.1344 21.552 75.7984 20.992 75.2864 20.608C74.7744 20.192 74.0864 19.984 73.2224 19.984C72.6784 19.984 72.2624 20.096 71.9744 20.32C71.6864 20.512 71.5424 20.816 71.5424 21.232C71.5424 21.776 71.8784 22.192 72.5504 22.48C73.2224 22.736 74.2944 23.008 75.7664 23.296C77.7184 23.68 79.3664 24.112 80.7104 24.592C82.0544 25.072 83.2224 25.904 84.2144 27.088C85.2064 28.24 85.7024 29.84 85.7024 31.888C85.7024 33.488 85.2384 34.928 84.3104 36.208C83.3824 37.488 82.0384 38.496 80.2784 39.232C78.5504 39.968 76.5184 40.336 74.1824 40.336ZM100.587 16.624C101.259 15.376 102.219 14.4 103.467 13.696C104.747 12.96 106.267 12.592 108.027 12.592C110.139 12.592 112.043 13.152 113.739 14.272C115.435 15.36 116.763 16.96 117.723 19.072C118.715 21.152 119.211 23.616 119.211 26.464C119.211 29.312 118.715 31.792 117.723 33.904C116.763 35.984 115.435 37.584 113.739 38.704C112.043 39.792 110.139 40.336 108.027 40.336C106.267 40.336 104.747 39.984 103.467 39.28C102.219 38.544 101.259 37.552 100.587 36.304V52.96H89.9313V12.928H100.587V16.624ZM108.411 26.464C108.411 25.024 108.043 23.904 107.307 23.104C106.571 22.304 105.627 21.904 104.475 21.904C103.323 21.904 102.379 22.304 101.643 23.104C100.907 23.904 100.539 25.024 100.539 26.464C100.539 27.904 100.907 29.024 101.643 29.824C102.379 30.624 103.323 31.024 104.475 31.024C105.627 31.024 106.571 30.624 107.307 29.824C108.043 29.024 108.411 27.904 108.411 26.464ZM135.42 40.336C132.7 40.336 130.252 39.776 128.076 38.656C125.9 37.536 124.188 35.936 122.94 33.856C121.724 31.744 121.116 29.28 121.116 26.464C121.116 23.648 121.724 21.2 122.94 19.12C124.188 17.008 125.9 15.392 128.076 14.272C130.252 13.152 132.7 12.592 135.42 12.592C138.14 12.592 140.588 13.152 142.764 14.272C144.94 15.392 146.636 17.008 147.852 19.12C149.1 21.2 149.724 23.648 149.724 26.464C149.724 29.28 149.1 31.744 147.852 33.856C146.636 35.936 144.94 37.536 142.764 38.656C140.588 39.776 138.14 40.336 135.42 40.336ZM135.42 31.12C136.412 31.12 137.244 30.736 137.916 29.968C138.588 29.168 138.924 28 138.924 26.464C138.924 24.928 138.588 23.776 137.916 23.008C137.244 22.208 136.412 21.808 135.42 21.808C134.428 21.808 133.596 22.208 132.924 23.008C132.252 23.776 131.916 24.928 131.916 26.464C131.916 28 132.236 29.168 132.876 29.968C133.548 30.736 134.396 31.12 135.42 31.12ZM172.032 12.736C175.136 12.736 177.552 13.776 179.28 15.856C181.04 17.936 181.92 20.752 181.92 24.304V40H171.312V25.648C171.312 24.368 170.96 23.36 170.256 22.624C169.584 21.856 168.672 21.472 167.52 21.472C166.336 21.472 165.408 21.856 164.736 22.624C164.064 23.36 163.728 24.368 163.728 25.648V40H153.072V12.928H163.728V17.056C164.56 15.776 165.664 14.736 167.04 13.936C168.448 13.136 170.112 12.736 172.032 12.736ZM198.589 40.336C196.029 40.336 193.757 39.92 191.773 39.088C189.821 38.256 188.269 37.104 187.117 35.632C185.965 34.16 185.309 32.496 185.149 30.64H195.373C195.501 31.44 195.837 32.032 196.381 32.416C196.957 32.8 197.677 32.992 198.541 32.992C199.085 32.992 199.517 32.88 199.837 32.656C200.157 32.4 200.317 32.096 200.317 31.744C200.317 31.136 199.981 30.704 199.309 30.448C198.637 30.192 197.501 29.904 195.901 29.584C193.949 29.2 192.333 28.784 191.053 28.336C189.805 27.888 188.701 27.12 187.741 26.032C186.813 24.944 186.349 23.44 186.349 21.52C186.349 19.856 186.781 18.352 187.645 17.008C188.541 15.632 189.853 14.56 191.581 13.792C193.309 12.992 195.405 12.592 197.869 12.592C201.517 12.592 204.365 13.488 206.413 15.28C208.493 17.072 209.741 19.408 210.157 22.288H200.701C200.541 21.552 200.205 20.992 199.693 20.608C199.181 20.192 198.493 19.984 197.629 19.984C197.085 19.984 196.669 20.096 196.381 20.32C196.093 20.512 195.949 20.816 195.949 21.232C195.949 21.776 196.285 22.192 196.957 22.48C197.629 22.736 198.701 23.008 200.173 23.296C202.125 23.68 203.773 24.112 205.117 24.592C206.461 25.072 207.629 25.904 208.621 27.088C209.613 28.24 210.109 29.84 210.109 31.888C210.109 33.488 209.645 34.928 208.717 36.208C207.789 37.488 206.445 38.496 204.685 39.232C202.957 39.968 200.925 40.336 198.589 40.336ZM219.714 10.768C217.858 10.768 216.37 10.272 215.25 9.28C214.13 8.288 213.57 7.04 213.57 5.536C213.57 4 214.13 2.736 215.25 1.744C216.37 0.719997 217.858 0.207997 219.714 0.207997C221.538 0.207997 223.01 0.719997 224.13 1.744C225.25 2.736 225.81 4 225.81 5.536C225.81 7.04 225.25 8.288 224.13 9.28C223.01 10.272 221.538 10.768 219.714 10.768ZM224.994 12.928V40H214.338V12.928H224.994ZM243.534 29.872L247.854 12.928H259.182L250.158 40H236.862L227.838 12.928H239.166L243.534 29.872ZM288.217 26.224C288.217 26.96 288.169 27.664 288.073 28.336H270.937C271.097 30.672 272.073 31.84 273.865 31.84C275.017 31.84 275.849 31.312 276.361 30.256H287.641C287.257 32.176 286.441 33.904 285.193 35.44C283.977 36.944 282.425 38.144 280.537 39.04C278.681 39.904 276.633 40.336 274.393 40.336C271.705 40.336 269.305 39.776 267.193 38.656C265.113 37.536 263.481 35.936 262.297 33.856C261.145 31.744 260.569 29.28 260.569 26.464C260.569 23.648 261.145 21.2 262.297 19.12C263.481 17.008 265.113 15.392 267.193 14.272C269.305 13.152 271.705 12.592 274.393 12.592C277.081 12.592 279.465 13.152 281.545 14.272C283.657 15.36 285.289 16.928 286.441 18.976C287.625 21.024 288.217 23.44 288.217 26.224ZM277.417 23.68C277.417 22.784 277.129 22.112 276.553 21.664C275.977 21.184 275.257 20.944 274.393 20.944C272.505 20.944 271.401 21.856 271.081 23.68H277.417Z" fill="white"/>
</svg>
